<?xml version="1.0" standalone="no"?>
<!DOCTYPE svg PUBLIC "-//W3C//DTD SVG 20010904//EN"
 "http://www.w3.org/TR/2001/REC-SVG-20010904/DTD/svg10.dtd">
<svg version="1.0" xmlns="http://www.w3.org/2000/svg"
 width="512.000000pt" height="512.000000pt" viewBox="0 0 512.000000 512.000000"
 preserveAspectRatio="xMidYMid meet">

<g transform="translate(0.000000,512.000000) scale(0.100000,-0.100000)"
fill="#000000" stroke="none">
<path d="M2368 5105 c-256 -49 -541 -237 -685 -453 -220 -331 -257 -818 -108
-1397 31 -119 91 -303 81 -245 -35 185 -33 388 4 505 43 138 84 200 220 335
135 133 185 201 256 346 l45 91 62 -33 c79 -41 221 -99 312 -126 59 -17 111
-22 325 -28 233 -6 260 -9 315 -30 111 -43 206 -172 262 -355 24 -78 24 -404
1 -535 -9 -47 -14 -87 -13 -88 5 -5 59 168 84 265 60 235 85 531 62 732 -35
298 -156 546 -352 724 -133 121 -339 237 -494 277 -105 28 -275 34 -377 15z"/>
<path d="M1704 2820 c29 -223 26 -495 -7 -670 -12 -63 -13 -65 -68 -101 -97
-64 -149 -133 -228 -296 -39 -81 -74 -154 -79 -162 -4 -7 -40 -22 -80 -32 -99
-25 -165 -63 -237 -134 -85 -86 -145 -215 -145 -317 l0 -38 50 0 c48 0 50 1
50 28 0 45 29 133 61 184 41 64 110 125 177 156 51 24 69 27 167 27 98 0 116
-3 165 -26 121 -57 220 -189 235 -314 l7 -55 49 0 c49 0 49 0 49 33 0 18 -7
59 -15 92 -46 176 -183 316 -354 361 -36 10 -67 18 -69 19 -8 6 132 277 162
311 71 83 150 117 290 126 32 2 44 9 67 41 30 41 73 159 89 245 l10 53 -53 52
c-103 101 -201 244 -264 385 -33 74 -34 75 -29 32z"/>
<path d="M3332 2757 c-37 -89 -154 -257 -236 -340 l-76 -75 20 -57 c30 -88 80
-183 119 -226 34 -38 40 -40 121 -50 47 -6 98 -15 113 -21 40 -15 102 -91 116
-140 13 -49 10 -1459 -3 -1515 -10 -41 19 -73 68 -73 55 0 91 54 67 98 -8 14
-11 233 -11 709 0 425 -4 712 -10 752 -14 83 -50 153 -110 210 -43 41 -51 55
-69 126 -30 122 -49 239 -61 397 -7 79 -15 170 -18 202 l-7 59 -23 -56z"/>
<path d="M1196 654 c-8 -20 -8 -62 0 -91 6 -20 13 -23 58 -23 29 0 57 5 64 12
17 17 15 84 -4 102 -21 22 -110 22 -118 0z"/>
<path d="M1412 648 c-14 -14 -16 -77 -3 -97 5 -8 32 -16 64 -19 l55 -4 7 45
c11 74 3 87 -59 87 -28 0 -57 -5 -64 -12z"/>
</g>
</svg>
